<mxfile host="Electron" agent="Mozilla/5.0 (Windows NT 10.0; Win64; x64) AppleWebKit/537.36 (KHTML, like Gecko) draw.io/24.7.8 Chrome/128.0.6613.36 Electron/32.0.1 Safari/537.36" version="24.7.8">
  <diagram name="Page-1" id="t9a5m_bKD9C-yNpvmvKL">
    <mxGraphModel dx="1569" dy="2283" grid="1" gridSize="10" guides="1" tooltips="1" connect="1" arrows="1" fold="1" page="1" pageScale="1" pageWidth="850" pageHeight="1100" math="0" shadow="0">
      <root>
        <mxCell id="0" />
        <mxCell id="1" parent="0" />
        <mxCell id="ldxb-2AIBdacw099OIL1-1" value="ChessBoard" style="swimlane;whiteSpace=wrap;html=1;" vertex="1" parent="1">
          <mxGeometry y="130" width="430" height="310" as="geometry" />
        </mxCell>
        <mxCell id="ldxb-2AIBdacw099OIL1-3" value="Variables" style="swimlane;fontStyle=0;childLayout=stackLayout;horizontal=1;startSize=30;horizontalStack=0;resizeParent=1;resizeParentMax=0;resizeLast=0;collapsible=1;marginBottom=0;whiteSpace=wrap;html=1;" vertex="1" parent="ldxb-2AIBdacw099OIL1-1">
          <mxGeometry x="30" y="40" width="370" height="90" as="geometry" />
        </mxCell>
        <mxCell id="ldxb-2AIBdacw099OIL1-4" value="&lt;span style=&quot;text-align: center;&quot;&gt;board: 8x8 List&lt;/span&gt;" style="text;strokeColor=none;fillColor=none;align=left;verticalAlign=middle;spacingLeft=4;spacingRight=4;overflow=hidden;points=[[0,0.5],[1,0.5]];portConstraint=eastwest;rotatable=0;whiteSpace=wrap;html=1;" vertex="1" parent="ldxb-2AIBdacw099OIL1-3">
          <mxGeometry y="30" width="370" height="30" as="geometry" />
        </mxCell>
        <mxCell id="ldxb-2AIBdacw099OIL1-5" value="isWhiteTurn: bool" style="text;strokeColor=none;fillColor=none;align=left;verticalAlign=middle;spacingLeft=4;spacingRight=4;overflow=hidden;points=[[0,0.5],[1,0.5]];portConstraint=eastwest;rotatable=0;whiteSpace=wrap;html=1;" vertex="1" parent="ldxb-2AIBdacw099OIL1-3">
          <mxGeometry y="60" width="370" height="30" as="geometry" />
        </mxCell>
        <mxCell id="ldxb-2AIBdacw099OIL1-7" value="Methods" style="swimlane;fontStyle=0;childLayout=stackLayout;horizontal=1;startSize=30;horizontalStack=0;resizeParent=1;resizeParentMax=0;resizeLast=0;collapsible=1;marginBottom=0;whiteSpace=wrap;html=1;" vertex="1" parent="ldxb-2AIBdacw099OIL1-1">
          <mxGeometry x="30" y="150" width="370" height="90" as="geometry" />
        </mxCell>
        <mxCell id="ldxb-2AIBdacw099OIL1-8" value="&lt;span style=&quot;text-align: center;&quot;&gt;getLegalMovesFromGrid(Gridsquare)&amp;nbsp; -&amp;gt; list of legal moves&lt;/span&gt;" style="text;strokeColor=none;fillColor=none;align=left;verticalAlign=middle;spacingLeft=4;spacingRight=4;overflow=hidden;points=[[0,0.5],[1,0.5]];portConstraint=eastwest;rotatable=0;whiteSpace=wrap;html=1;" vertex="1" parent="ldxb-2AIBdacw099OIL1-7">
          <mxGeometry y="30" width="370" height="30" as="geometry" />
        </mxCell>
        <mxCell id="ldxb-2AIBdacw099OIL1-9" value="isWhiteTurn: bool" style="text;strokeColor=none;fillColor=none;align=left;verticalAlign=middle;spacingLeft=4;spacingRight=4;overflow=hidden;points=[[0,0.5],[1,0.5]];portConstraint=eastwest;rotatable=0;whiteSpace=wrap;html=1;" vertex="1" parent="ldxb-2AIBdacw099OIL1-7">
          <mxGeometry y="60" width="370" height="30" as="geometry" />
        </mxCell>
        <mxCell id="ldxb-2AIBdacw099OIL1-14" value="Piece" style="swimlane;whiteSpace=wrap;html=1;" vertex="1" parent="1">
          <mxGeometry x="650" y="-420" width="310" height="310" as="geometry" />
        </mxCell>
        <mxCell id="ldxb-2AIBdacw099OIL1-16" value="Variables" style="swimlane;fontStyle=0;childLayout=stackLayout;horizontal=1;startSize=30;horizontalStack=0;resizeParent=1;resizeParentMax=0;resizeLast=0;collapsible=1;marginBottom=0;whiteSpace=wrap;html=1;" vertex="1" parent="ldxb-2AIBdacw099OIL1-14">
          <mxGeometry x="40" y="50" width="240" height="120" as="geometry">
            <mxRectangle x="50" y="40" width="90" height="30" as="alternateBounds" />
          </mxGeometry>
        </mxCell>
        <mxCell id="ldxb-2AIBdacw099OIL1-17" value="type: int" style="text;strokeColor=none;fillColor=none;align=left;verticalAlign=middle;spacingLeft=4;spacingRight=4;overflow=hidden;points=[[0,0.5],[1,0.5]];portConstraint=eastwest;rotatable=0;whiteSpace=wrap;html=1;" vertex="1" parent="ldxb-2AIBdacw099OIL1-16">
          <mxGeometry y="30" width="240" height="30" as="geometry" />
        </mxCell>
        <mxCell id="ldxb-2AIBdacw099OIL1-23" value="color: int" style="text;strokeColor=none;fillColor=none;align=left;verticalAlign=middle;spacingLeft=4;spacingRight=4;overflow=hidden;points=[[0,0.5],[1,0.5]];portConstraint=eastwest;rotatable=0;whiteSpace=wrap;html=1;" vertex="1" parent="ldxb-2AIBdacw099OIL1-16">
          <mxGeometry y="60" width="240" height="30" as="geometry" />
        </mxCell>
        <mxCell id="ldxb-2AIBdacw099OIL1-36" value="haveMoved: bool" style="text;strokeColor=none;fillColor=none;align=left;verticalAlign=middle;spacingLeft=4;spacingRight=4;overflow=hidden;points=[[0,0.5],[1,0.5]];portConstraint=eastwest;rotatable=0;whiteSpace=wrap;html=1;" vertex="1" parent="ldxb-2AIBdacw099OIL1-16">
          <mxGeometry y="90" width="240" height="30" as="geometry" />
        </mxCell>
        <mxCell id="ldxb-2AIBdacw099OIL1-20" value="Methods" style="swimlane;fontStyle=0;childLayout=stackLayout;horizontal=1;startSize=30;horizontalStack=0;resizeParent=1;resizeParentMax=0;resizeLast=0;collapsible=1;marginBottom=0;whiteSpace=wrap;html=1;" vertex="1" parent="ldxb-2AIBdacw099OIL1-14">
          <mxGeometry x="40" y="200" width="240" height="60" as="geometry" />
        </mxCell>
        <mxCell id="ldxb-2AIBdacw099OIL1-21" value="getPossibleMoves() -&amp;gt; int tuple" style="text;strokeColor=none;fillColor=none;align=left;verticalAlign=middle;spacingLeft=4;spacingRight=4;overflow=hidden;points=[[0,0.5],[1,0.5]];portConstraint=eastwest;rotatable=0;whiteSpace=wrap;html=1;" vertex="1" parent="ldxb-2AIBdacw099OIL1-20">
          <mxGeometry y="30" width="240" height="30" as="geometry" />
        </mxCell>
        <mxCell id="ldxb-2AIBdacw099OIL1-30" value="" style="edgeStyle=orthogonalEdgeStyle;rounded=0;orthogonalLoop=1;jettySize=auto;html=1;" edge="1" parent="1" target="ldxb-2AIBdacw099OIL1-24">
          <mxGeometry relative="1" as="geometry">
            <mxPoint x="810" y="-110" as="sourcePoint" />
            <Array as="points">
              <mxPoint x="810" y="-40" />
              <mxPoint x="810" y="-40" />
            </Array>
          </mxGeometry>
        </mxCell>
        <mxCell id="ldxb-2AIBdacw099OIL1-24" value="Pawn" style="swimlane;whiteSpace=wrap;html=1;startSize=23;" vertex="1" parent="1">
          <mxGeometry x="460" y="-80" width="310" height="310" as="geometry" />
        </mxCell>
        <mxCell id="ldxb-2AIBdacw099OIL1-25" value="Variables" style="swimlane;fontStyle=0;childLayout=stackLayout;horizontal=1;startSize=30;horizontalStack=0;resizeParent=1;resizeParentMax=0;resizeLast=0;collapsible=1;marginBottom=0;whiteSpace=wrap;html=1;" vertex="1" parent="ldxb-2AIBdacw099OIL1-24">
          <mxGeometry x="40" y="50" width="240" height="60" as="geometry">
            <mxRectangle x="50" y="40" width="90" height="30" as="alternateBounds" />
          </mxGeometry>
        </mxCell>
        <mxCell id="ldxb-2AIBdacw099OIL1-31" value="EnPassentAvalible: int&amp;nbsp;" style="text;strokeColor=none;fillColor=none;align=left;verticalAlign=middle;spacingLeft=4;spacingRight=4;overflow=hidden;points=[[0,0.5],[1,0.5]];portConstraint=eastwest;rotatable=0;whiteSpace=wrap;html=1;" vertex="1" parent="ldxb-2AIBdacw099OIL1-25">
          <mxGeometry y="30" width="240" height="30" as="geometry" />
        </mxCell>
      </root>
    </mxGraphModel>
  </diagram>
</mxfile>
